<svg xmlns="http://www.w3.org/2000/svg" aria-hidden="true" style="position:absolute;width:0;height:0;overflow:hidden"></svg>
<defs>
<symbol id="icon-burger" viewBox="0 0 32 32"><path stroke-linecap="round" stroke-linejoin="round" stroke-width="2.5" d="M4 16h24M4 8h24M4 24h24"/></symbol>
<symbol id="icon-chocolate" viewBox="0 0 32 32"><path d="M3.944 20.076 14.721 2.652l.64-.674 8.236 5.491.056 3.314 2.01 3.28-8.88 14.077-12.839-8.063z"/><path stroke-linecap="round" stroke-linejoin="round" stroke-width="2.667" d="M21.635 23.88 7.45 15.016m3.911-6.417 14.185 8.864M10.63 25.864l11.736-19.25m4.81 8.175c-3.04-1.899-4.234-3.384-2.278-6.592l-9.626-6.015-11.736 19.25 14.186 8.864 9.454-15.507z"/></symbol>
<symbol id="icon-chocolate-bar" viewBox="0 0 32 32"><path d="m13.822 2.413 7.527 7.536.08-.08a.856.856 0 0 1 1.184-.013l.873.873c.305.305.315.77.083 1.094l-.004.007-.143.192 6.16 6.16c.55.55.55 1.43 0 1.98l-9.43 9.43c-.55.55-1.43.55-1.98 0l-4.447-4.447a.853.853 0 0 1-.612.317.842.842 0 0 1-.644-.246l-2.6-2.6a.856.856 0 0 1-.013-1.184l.006-.007.077-.076-7.527-7.527c-.55-.55-.55-1.43 0-1.98l9.43-9.43c.55-.55 1.43-.55 1.98 0v.001zm6.582 8.48-1.756-1.755a.59.59 0 0 0-.85 0l-3.58 3.58a.621.621 0 0 0-.179.43.602.602 0 0 0 .179.43l1.749 1.749.61-.61-1.565-1.565 3.21-3.22 1.569 1.574.613-.613zm-5.076 5.072-1.754-1.754a.59.59 0 0 0-.85 0l-3.59 3.59c-.24.23-.24.61 0 .85l1.752 1.752.616-.616-1.57-1.564 3.22-3.21 1.564 1.563.612-.611zM8.822 8.193l3.58 3.58c.24.24.62.24.85-.01l3.58-3.58a.57.57 0 0 0 .18-.42h.01c0-.15-.06-.31-.18-.43l-3.58-3.58a.602.602 0 0 0-.86 0l-3.58 3.59c-.24.23-.24.61 0 .85zm-5.07 5.07 3.58 3.58c.24.24.62.24.85 0l3.58-3.58a.578.578 0 0 0 .18-.43h.01c0-.16-.06-.31-.18-.43l-3.58-3.58a.59.59 0 0 0-.85 0l-3.59 3.59c-.24.23-.24.61 0 .85zm6.933 8.754 2.362 2.363 9.636-13.04-.655-.655-11.343 11.332z"/><path d="m13.822 2.413 7.527 7.536.08-.08a.856.856 0 0 1 1.184-.013l.873.873c.305.305.315.77.083 1.094l-.004.007-.143.192 6.16 6.16c.55.55.55 1.43 0 1.98l-9.43 9.43c-.55.55-1.43.55-1.98 0l-4.447-4.447a.853.853 0 0 1-.612.317.842.842 0 0 1-.644-.246l-2.6-2.6a.856.856 0 0 1-.013-1.184l.006-.007.077-.076-7.527-7.527c-.55-.55-.55-1.43 0-1.98l9.43-9.43c.55-.55 1.43-.55 1.98 0v.001zm6.582 8.48-1.756-1.755a.59.59 0 0 0-.85 0l-3.58 3.58a.621.621 0 0 0-.179.43.602.602 0 0 0 .179.43l1.749 1.749.61-.61-1.565-1.565 3.21-3.22 1.569 1.574.613-.613zm-5.076 5.072-1.754-1.754a.59.59 0 0 0-.85 0l-3.59 3.59c-.24.23-.24.61 0 .85l1.752 1.752.616-.616-1.57-1.564 3.22-3.21 1.564 1.563.612-.611zM8.822 8.193l3.58 3.58c.24.24.62.24.85-.01l3.58-3.58a.57.57 0 0 0 .18-.42h.01c0-.15-.06-.31-.18-.43l-3.58-3.58a.602.602 0 0 0-.86 0l-3.58 3.59c-.24.23-.24.61 0 .85zm-5.07 5.07 3.58 3.58c.24.24.62.24.85 0l3.58-3.58a.578.578 0 0 0 .18-.43h.01c0-.16-.06-.31-.18-.43l-3.58-3.58a.59.59 0 0 0-.85 0l-3.59 3.59c-.24.23-.24.61 0 .85zm6.933 8.754 2.362 2.363 9.636-13.04-.655-.655-11.343 11.332z"/></symbol>
<symbol id="icon-close" viewBox="0 0 32 32"><path stroke-linecap="round" stroke-linejoin="round" stroke-width="2.909" d="M24 8 8 24M8 8l16 16"/></symbol>
<symbol id="icon-coin" viewBox="0 0 32 32"><path d="M16 2.667c-7.333 0-13.333 6-13.333 13.333s6 13.333 13.333 13.333 13.333-6 13.333-13.333S23.333 2.667 16 2.667zm0 24c-5.867 0-10.667-4.8-10.667-10.667S10.133 5.333 16 5.333 26.667 10.133 26.667 16 21.867 26.667 16 26.667z"/><path d="M17.733 14.667h-3.467c-.667 0-1.2-.533-1.2-1.2s.533-1.2 1.2-1.2h4.933c.8 0 1.333-.533 1.333-1.333s-.533-1.333-1.333-1.333h-1.867v-1.2c0-.8-.533-1.333-1.333-1.333s-1.333.533-1.333 1.333v1.2h-.4c-2.133 0-3.867 1.733-3.867 3.867s1.733 3.867 3.867 3.867h3.333c.667 0 1.2.533 1.2 1.2s-.533 1.2-1.2 1.2h-4.933c-.8 0-1.333.533-1.333 1.333s.533 1.333 1.333 1.333h2v1.2c0 .8.533 1.333 1.333 1.333s1.333-.533 1.333-1.333v-1.2h.4c2.133 0 3.867-1.733 3.867-3.867s-1.733-3.867-3.867-3.867z"/></symbol>
<symbol id="icon-instagram" viewBox="0 0 32 32"><path stroke-linecap="round" stroke-linejoin="round" stroke-width="2.667" d="M22.667 2.667H9.334a6.667 6.667 0 0 0-6.667 6.667v13.333a6.667 6.667 0 0 0 6.667 6.667h13.333a6.667 6.667 0 0 0 6.667-6.667V9.334a6.667 6.667 0 0 0-6.667-6.667z"/><path stroke-linecap="round" stroke-linejoin="round" stroke-width="2.667" d="M21.334 15.16a5.329 5.329 0 0 1-2.878 5.546 5.338 5.338 0 0 1-6.169-.992 5.33 5.33 0 0 1 1.316-8.505 5.336 5.336 0 0 1 6.228.962 5.328 5.328 0 0 1 1.504 2.989zM23.333 8.667h.013"/></symbol>
<symbol id="icon-play" viewBox="0 0 32 32"><path d="M10.909 24V8.727l14.545 7.636-14.545 7.636z"/><path stroke-width=".727" d="M31.636 16c0 8.636-7.001 15.636-15.636 15.636S.364 24.635.364 16C.364 7.364 7.365.364 16 .364S31.636 7.365 31.636 16z"/></symbol>
<symbol id="icon-spoon" viewBox="0 0 32 32"><path d="M15.451 14.106a5.154 5.154 0 0 1-1.177-3.282c0-4.324 5.181-8.642 10.362-8.642a5.183 5.183 0 0 1 5.181 5.182c0 5.182-4.317 10.364-8.646 10.364a5.15 5.15 0 0 1-3.281-1.177L5.132 29.312a1.73 1.73 0 0 1-2.445-2.445l12.764-12.761z"/></symbol>
<symbol id="icon-twitter" viewBox="0 0 32 32"><path stroke-linecap="round" stroke-linejoin="round" stroke-width="2.667" d="M30.667 4a14.542 14.542 0 0 1-4.187 2.04 5.975 5.975 0 0 0-6.637-1.661A5.981 5.981 0 0 0 16 10.04v1.333c-2.343.061-4.665-.459-6.759-1.513S4.68 6.297 3.333 4.379c0 0-4.667 12.954 7.333 18.287a15.519 15.519 0 0 1-9.333 2.667C13.333 32 28 25.333 28 10a5.966 5.966 0 0 0-.107-1.107A10.288 10.288 0 0 0 30.666 4z"/></symbol>
<symbol id="icon-vector" viewBox="0 0 32 32"><path d="M16.947 17.867a1.334 1.334 0 0 1-1.894 0l-6.107-6.12a1.334 1.334 0 1 0-1.894 1.88l6.12 6.12a4.001 4.001 0 0 0 5.654 0l6.12-6.12a1.337 1.337 0 0 0-.434-2.172 1.331 1.331 0 0 0-1.46.292l-6.107 6.12z"/></symbol>
<symbol id="icon-vector-2" viewBox="0 0 32 32"><path d="M.762 32V0l30.476 16L.762 32z"/></symbol>
<symbol id="icon-twitter-tab1" viewBox="0 0 32 32"><path d="M21.12 2.699c-1.139 0.208-1.597 0.345-2.32 0.691-0.881 0.423-1.711 1.045-2.281 1.713-1.116 1.307-1.719 2.749-1.829 4.375l-0.037 0.545-0.247-0.029c-2.089-0.245-3.967-0.879-5.401-1.824-1.385-0.913-3.087-2.579-4.421-4.329-0.42-0.552-0.46-0.592-0.753-0.748-0.281-0.149-0.595-0.135-0.979 0.048-0.427 0.201-0.661 0.481-0.839 1.005-0.289 0.845-0.584 2.247-0.768 3.643-0.131 1.001-0.131 3.52 0 4.496 0.248 1.852 0.669 3.263 1.429 4.783 1.073 2.147 2.591 3.856 4.687 5.277l0.533 0.361-0.413 0.175c-1.621 0.708-3.509 1.12-5.494 1.12-0.014 0-0.028-0-0.042-0h0.002c-0.499 0-0.993 0.025-1.1 0.055-0.303 0.080-0.547 0.283-0.681 0.551l-0.003 0.006c-0.112 0.22-0.136 0.339-0.136 0.693 0 0.368 0.020 0.463 0.144 0.673 0.187 0.319 0.353 0.439 1.189 0.864 2.073 1.053 3.952 1.695 6.107 2.085 1.405 0.255 3.689 0.367 5.073 0.249 1.737-0.148 3.2-0.451 4.66-0.963 4.72-1.656 8.313-4.949 10.36-9.495 1.125-2.501 1.692-5.183 1.745-8.279l0.020-1.107 0.331-0.404c0.981-1.199 1.74-2.623 2.187-4.178l0.021-0.083c0.296-1.037 0.107-1.599-0.637-1.884-0.567-0.217-0.884-0.155-1.635 0.327-0.333 0.212-0.833 0.509-1.112 0.659-0.505 0.272-1.491 0.709-1.597 0.709-0.031 0-0.276-0.167-0.544-0.371-0.795-0.603-1.821-1.063-2.927-1.309-0.387-0.085-1.988-0.156-2.292-0.101zM22.863 5.411c1.027 0.219 1.86 0.692 2.631 1.496 0.32 0.333 0.565 0.453 0.928 0.453 0.241 0 0.819-0.143 1.252-0.308 0.119-0.047-0.067 0.2-0.54 0.713-0.545 0.592-0.613 0.777-0.529 1.455 0.155 1.251-0.004 3.307-0.396 5.127-0.557 2.536-1.634 4.76-3.12 6.648l0.027-0.035c-0.465 0.588-1.736 1.851-2.315 2.3-1.041 0.808-2.456 1.639-3.573 2.1-1.347 0.565-2.91 0.97-4.542 1.139l-0.072 0.006c-0.797 0.077-2.567 0.064-3.413-0.025-0.892-0.095-2.080-0.303-2.48-0.435-0.044-0.015 0.196-0.119 0.533-0.229 0.912-0.3 1.688-0.636 2.427-1.033l-0.080 0.039c0.98-0.499 1.844-1.036 2.064-1.283 0.297-0.333 0.461-1.024 0.323-1.355-0.155-0.371-0.339-0.516-1.177-0.925-3.961-1.94-6.103-4.66-6.828-8.673-0.161-0.895-0.211-1.697-0.179-2.959 0.028-1.085 0.061-1.507 0.172-2.144l0.029-0.171 0.464 0.483c0.629 0.634 1.287 1.235 1.975 1.802l0.045 0.036c1.865 1.5 4.248 2.508 6.856 2.904 0.868 0.131 2.787 0.197 3.115 0.108 0.308-0.077 0.561-0.274 0.71-0.537l0.003-0.006c0.128-0.229 0.133-0.281 0.168-1.597 0.029-1.168 0.051-1.416 0.151-1.76 0.483-1.68 1.831-2.957 3.518-3.329l0.031-0.006c0.432-0.095 1.379-0.096 1.823-0.001z"></path>
</symbol>
<symbol id="icon-burger1" viewBox="0 0 45 32">
<path d="M2.709 1.27c-0.613 0.090-1.018 0.37-1.266 0.877-0.187 0.379-0.21 0.506-0.203 1.101 0.011 0.987 0.266 1.446 0.982 1.778l0.354 0.163h39.648l0.354-0.163c0.718-0.331 0.971-0.79 0.982-1.782 0.008-0.616-0.013-0.718-0.218-1.118-0.197-0.386-0.282-0.47-0.667-0.667l-0.44-0.226-19.568-0.010c-10.763-0.006-19.744 0.016-19.958 0.048zM2.464 14.107c-0.875 0.267-1.221 0.808-1.221 1.909 0 0.971 0.226 1.426 0.885 1.781l0.299 0.16h39.946l0.299-0.16c0.659-0.355 0.885-0.81 0.885-1.781s-0.226-1.426-0.885-1.781l-0.299-0.16-19.861-0.013c-10.923-0.006-19.946 0.013-20.048 0.045zM2.616 26.886c-0.528 0.104-0.971 0.422-1.189 0.853-0.158 0.314-0.187 0.48-0.192 1.050-0.003 0.611 0.019 0.722 0.222 1.118 0.197 0.386 0.282 0.47 0.667 0.667l0.44 0.226h39.67l0.44-0.226c0.386-0.197 0.47-0.282 0.667-0.667 0.205-0.4 0.226-0.502 0.218-1.118-0.011-0.992-0.264-1.451-0.982-1.782l-0.354-0.163-19.637-0.011c-11.037-0.006-19.784 0.018-19.971 0.054z"></path>
</symbol>
<symbol id="icon-instagram-dt1" viewBox="0 0 32 32">
<path d="M8.507 1.391c-1.921 0.197-3.611 1.058-4.863 2.347l-0.002 0.002c-1.258 1.255-2.088 2.938-2.254 4.812l-0.002 0.030c-0.065 0.672-0.065 14.165 0 14.837 0.175 1.951 1.043 3.671 2.353 4.938l0.002 0.002c1.255 1.258 2.938 2.088 4.812 2.254l0.030 0.002c0.672 0.065 14.165 0.065 14.837 0 1.903-0.168 3.586-0.998 4.841-2.256l0-0c1.312-1.269 2.179-2.989 2.352-4.91l0.002-0.030c0.065-0.672 0.065-14.165 0-14.837-0.175-1.951-1.043-3.671-2.352-4.938l-0.002-0.002c-1.255-1.258-2.938-2.088-4.812-2.254l-0.030-0.002c-0.619-0.060-14.299-0.056-14.912 0.005zM23.697 4.111c2.122 0.426 3.767 2.071 4.188 4.159l0.006 0.034c0.107 0.529 0.109 0.68 0.109 7.696 0 7.021-0.003 7.167-0.111 7.697-0.426 2.122-2.071 3.767-4.159 4.188l-0.034 0.006c-0.529 0.107-0.68 0.109-7.696 0.109s-7.167-0.003-7.696-0.109c-2.122-0.426-3.767-2.071-4.188-4.159l-0.006-0.034c-0.108-0.531-0.111-0.676-0.111-7.697s0.003-7.167 0.111-7.697c0.426-2.11 2.054-3.748 4.125-4.183l0.035-0.006c0.485-0.103 0.743-0.105 7.695-0.109 7.064-0.004 7.201-0.003 7.732 0.107zM23.011 7.359c-0.688 0.103-0.993 0.503-0.997 1.308-0.004 0.912 0.4 1.316 1.319 1.32 0.479 0.001 0.761-0.089 1.005-0.323 0.247-0.235 0.321-0.464 0.324-0.997 0.003-0.54-0.097-0.808-0.391-1.056-0.271-0.227-0.763-0.325-1.26-0.252zM14.827 9.388c-2.503 0.48-4.48 2.291-5.195 4.759-0.153 0.507-0.241 1.091-0.241 1.694 0 0.131 0.004 0.261 0.012 0.39l-0.001-0.018c0.079 1.707 0.677 3.113 1.849 4.34 1.205 1.261 2.744 1.959 4.508 2.044 3.369 0.161 6.304-2.219 6.884-5.584 0.107-0.613 0.077-1.835-0.059-2.453-0.197-0.907-0.641-1.899-1.149-2.573-0.423-0.534-0.89-1.002-1.405-1.412l-0.018-0.013c-0.449-0.341-1.511-0.868-2.040-1.013-1.024-0.281-2.205-0.341-3.147-0.16zM16.789 12.028c1.052 0.2 2.011 0.839 2.62 1.747 0.431 0.643 0.679 1.596 0.627 2.412-0.064 0.997-0.447 1.827-1.183 2.567-0.413 0.416-0.556 0.521-0.988 0.729-0.712 0.344-1.075 0.429-1.812 0.427-1.155-0.003-1.988-0.349-2.801-1.161-0.811-0.811-1.156-1.641-1.164-2.801-0.004-0.744 0.081-1.108 0.427-1.811 0.486-0.922 1.287-1.623 2.257-1.97l0.029-0.009c0.369-0.129 0.794-0.204 1.236-0.204 0.266 0 0.527 0.027 0.778 0.078l-0.025-0.004z"></path>
</symbol>
<symbol id="icon-logo1" viewBox="0 0 32 32">
<path fill="#fcf1e0" style="fill: var(--color1, #fcf1e0)" d="M14.437 6.089c-0.699 1.145-1.263 2.088-1.253 2.095 0.133 0.096 4.769 2.972 4.803 2.979 0.045 0.011 2.549-4.039 2.544-4.113 0-0.020-1.015-0.667-2.253-1.437-5.565-3.306-6.351-3.803-7.137-4.301l4.726 2.797-0.16-0.101-1.269 2.083zM22.7 8.6c-0.385 0.607-2.435 4.003-2.423 4.013 0.075 0.063 4.487 2.8 4.515 2.8 0.019 0 0.092-0.101 0.161-0.224l0.128-0.223-0.208-0.161c-0.699-0.545-1.516-1.481-1.82-2.085-0.504-1.001-0.527-2.351-0.060-3.617 0.084-0.229 0.153-0.427 0.153-0.439 0-0.024-0.299-0.184-0.343-0.184-0.016 0-0.063 0.055-0.104 0.12zM10.513 12.513c-0.685 1.131-1.225 2.075-1.2 2.099 0.175 0.161 4.788 2.987 4.821 2.952 0.089-0.059 0.899-1.367 1.699-2.682l0.749-1.327c0.049-0.093-0.167-0.241-2.344-1.603-1.32-0.824-2.417-1.497-2.439-1.496-0.023 0.001-0.601 0.927-1.287 2.057zM18.84 14.947c-0.081 0.101-2.467 4.027-2.467 4.059 0 0.057 4.375 2.76 4.421 2.731 0.027-0.016 0.617-0.932 1.313-2.035 1.052-1.667 1.252-2.016 1.192-2.072-0.43-0.319-1.862-1.227-3.305-2.122l-1.087-0.628c-0.027 0.018-0.049 0.040-0.067 0.066l-0.001 0.001zM6.653 18.849c-0.667 1.097-1.224 2.027-1.239 2.065-0.017 0.048 0.768 0.569 2.357 1.565 1.311 0.821 2.401 1.493 2.424 1.493 0.047 0 2.497-4.001 2.497-4.077 0-0.041-4.749-3.045-4.808-3.041-0.011 0.001-0.564 0.899-1.232 1.995zM13.733 23.303c-0.675 1.111-1.227 2.048-1.227 2.083 0 0.036 0.957 0.665 2.127 1.399 1.761 1.104 2.137 1.321 2.193 1.261 0.177-0.188 2.537-4.009 2.499-4.045-0.075-0.103-1.495-1.002-2.922-1.889l-1.43-0.829c-0.007 0.001-0.565 0.911-1.24 2.021z"></path>
</symbol>
<symbol id="icon-close1" viewBox="0 0 32 32">
<path fill="#fcf1e0" style="fill: var(--color1, #fcf1e0)" d="M14.437 6.089c-0.699 1.145-1.263 2.088-1.253 2.095 0.133 0.096 4.769 2.972 4.803 2.979 0.045 0.011 2.549-4.039 2.544-4.113 0-0.020-1.015-0.667-2.253-1.437-5.565-3.306-6.351-3.803-7.137-4.301l4.726 2.797-0.16-0.101-1.269 2.083zM22.7 8.6c-0.385 0.607-2.435 4.003-2.423 4.013 0.075 0.063 4.487 2.8 4.515 2.8 0.019 0 0.092-0.101 0.161-0.224l0.128-0.223-0.208-0.161c-0.699-0.545-1.516-1.481-1.82-2.085-0.504-1.001-0.527-2.351-0.060-3.617 0.084-0.229 0.153-0.427 0.153-0.439 0-0.024-0.299-0.184-0.343-0.184-0.016 0-0.063 0.055-0.104 0.12zM10.513 12.513c-0.685 1.131-1.225 2.075-1.2 2.099 0.175 0.161 4.788 2.987 4.821 2.952 0.089-0.059 0.899-1.367 1.699-2.682l0.749-1.327c0.049-0.093-0.167-0.241-2.344-1.603-1.32-0.824-2.417-1.497-2.439-1.496-0.023 0.001-0.601 0.927-1.287 2.057zM18.84 14.947c-0.081 0.101-2.467 4.027-2.467 4.059 0 0.057 4.375 2.76 4.421 2.731 0.027-0.016 0.617-0.932 1.313-2.035 1.052-1.667 1.252-2.016 1.192-2.072-0.43-0.319-1.862-1.227-3.305-2.122l-1.087-0.628c-0.027 0.018-0.049 0.040-0.067 0.066l-0.001 0.001zM6.653 18.849c-0.667 1.097-1.224 2.027-1.239 2.065-0.017 0.048 0.768 0.569 2.357 1.565 1.311 0.821 2.401 1.493 2.424 1.493 0.047 0 2.497-4.001 2.497-4.077 0-0.041-4.749-3.045-4.808-3.041-0.011 0.001-0.564 0.899-1.232 1.995zM13.733 23.303c-0.675 1.111-1.227 2.048-1.227 2.083 0 0.036 0.957 0.665 2.127 1.399 1.761 1.104 2.137 1.321 2.193 1.261 0.177-0.188 2.537-4.009 2.499-4.045-0.075-0.103-1.495-1.002-2.922-1.889l-1.43-0.829c-0.007 0.001-0.565 0.911-1.24 2.021z"></path>
</symbol>
<symbol id="icon-instagram-tab1" viewBox="0 0 32 32">
<path fill="#fcf1e0" style="fill: var(--color1, #fcf1e0)" d="M14.437 6.089c-0.699 1.145-1.263 2.088-1.253 2.095 0.133 0.096 4.769 2.972 4.803 2.979 0.045 0.011 2.549-4.039 2.544-4.113 0-0.020-1.015-0.667-2.253-1.437-5.565-3.306-6.351-3.803-7.137-4.301l4.726 2.797-0.16-0.101-1.269 2.083zM22.7 8.6c-0.385 0.607-2.435 4.003-2.423 4.013 0.075 0.063 4.487 2.8 4.515 2.8 0.019 0 0.092-0.101 0.161-0.224l0.128-0.223-0.208-0.161c-0.699-0.545-1.516-1.481-1.82-2.085-0.504-1.001-0.527-2.351-0.060-3.617 0.084-0.229 0.153-0.427 0.153-0.439 0-0.024-0.299-0.184-0.343-0.184-0.016 0-0.063 0.055-0.104 0.12zM10.513 12.513c-0.685 1.131-1.225 2.075-1.2 2.099 0.175 0.161 4.788 2.987 4.821 2.952 0.089-0.059 0.899-1.367 1.699-2.682l0.749-1.327c0.049-0.093-0.167-0.241-2.344-1.603-1.32-0.824-2.417-1.497-2.439-1.496-0.023 0.001-0.601 0.927-1.287 2.057zM18.84 14.947c-0.081 0.101-2.467 4.027-2.467 4.059 0 0.057 4.375 2.76 4.421 2.731 0.027-0.016 0.617-0.932 1.313-2.035 1.052-1.667 1.252-2.016 1.192-2.072-0.43-0.319-1.862-1.227-3.305-2.122l-1.087-0.628c-0.027 0.018-0.049 0.040-0.067 0.066l-0.001 0.001zM6.653 18.849c-0.667 1.097-1.224 2.027-1.239 2.065-0.017 0.048 0.768 0.569 2.357 1.565 1.311 0.821 2.401 1.493 2.424 1.493 0.047 0 2.497-4.001 2.497-4.077 0-0.041-4.749-3.045-4.808-3.041-0.011 0.001-0.564 0.899-1.232 1.995zM13.733 23.303c-0.675 1.111-1.227 2.048-1.227 2.083 0 0.036 0.957 0.665 2.127 1.399 1.761 1.104 2.137 1.321 2.193 1.261 0.177-0.188 2.537-4.009 2.499-4.045-0.075-0.103-1.495-1.002-2.922-1.889l-1.43-0.829c-0.007 0.001-0.565 0.911-1.24 2.021z"></path>
</symbol>
<symbol id="icon-twitter-dt1" viewBox="0 0 32 32">
<path d="M21.12 2.699c-1.139 0.208-1.597 0.345-2.32 0.691-0.881 0.423-1.711 1.045-2.281 1.713-1.116 1.307-1.719 2.749-1.829 4.375l-0.037 0.545-0.247-0.029c-2.089-0.245-3.967-0.879-5.401-1.824-1.385-0.913-3.087-2.579-4.421-4.329-0.42-0.552-0.46-0.592-0.753-0.748-0.281-0.149-0.595-0.135-0.979 0.048-0.427 0.201-0.661 0.481-0.839 1.005-0.289 0.845-0.584 2.247-0.768 3.643-0.131 1.001-0.131 3.52 0 4.496 0.248 1.852 0.669 3.263 1.429 4.783 1.073 2.147 2.591 3.856 4.687 5.277l0.533 0.361-0.413 0.175c-1.621 0.708-3.509 1.12-5.494 1.12-0.014 0-0.028-0-0.042-0h0.002c-0.499 0-0.993 0.025-1.1 0.055-0.303 0.080-0.547 0.283-0.681 0.551l-0.003 0.006c-0.112 0.22-0.136 0.339-0.136 0.693 0 0.368 0.020 0.463 0.144 0.673 0.187 0.319 0.353 0.439 1.189 0.864 2.073 1.053 3.952 1.695 6.107 2.085 1.405 0.255 3.689 0.367 5.073 0.249 1.737-0.148 3.2-0.451 4.66-0.963 4.72-1.656 8.313-4.949 10.36-9.495 1.125-2.501 1.692-5.183 1.745-8.279l0.020-1.107 0.331-0.404c0.981-1.199 1.74-2.623 2.187-4.178l0.021-0.083c0.296-1.037 0.107-1.599-0.637-1.884-0.567-0.217-0.884-0.155-1.635 0.327-0.333 0.212-0.833 0.509-1.112 0.659-0.505 0.272-1.491 0.709-1.597 0.709-0.031 0-0.276-0.167-0.544-0.371-0.795-0.603-1.821-1.063-2.927-1.309-0.387-0.085-1.988-0.156-2.292-0.101zM22.863 5.411c1.027 0.219 1.86 0.692 2.631 1.496 0.32 0.333 0.565 0.453 0.928 0.453 0.241 0 0.819-0.143 1.252-0.308 0.119-0.047-0.067 0.2-0.54 0.713-0.545 0.592-0.613 0.777-0.529 1.455 0.155 1.251-0.004 3.307-0.396 5.127-0.557 2.536-1.634 4.76-3.12 6.648l0.027-0.035c-0.465 0.588-1.736 1.851-2.315 2.3-1.041 0.808-2.456 1.639-3.573 2.1-1.347 0.565-2.91 0.97-4.542 1.139l-0.072 0.006c-0.797 0.077-2.567 0.064-3.413-0.025-0.892-0.095-2.080-0.303-2.48-0.435-0.044-0.015 0.196-0.119 0.533-0.229 0.912-0.3 1.688-0.636 2.427-1.033l-0.080 0.039c0.98-0.499 1.844-1.036 2.064-1.283 0.297-0.333 0.461-1.024 0.323-1.355-0.155-0.371-0.339-0.516-1.177-0.925-3.961-1.94-6.103-4.66-6.828-8.673-0.161-0.895-0.211-1.697-0.179-2.959 0.028-1.085 0.061-1.507 0.172-2.144l0.029-0.171 0.464 0.483c0.629 0.634 1.287 1.235 1.975 1.802l0.045 0.036c1.865 1.5 4.248 2.508 6.856 2.904 0.868 0.131 2.787 0.197 3.115 0.108 0.308-0.077 0.561-0.274 0.71-0.537l0.003-0.006c0.128-0.229 0.133-0.281 0.168-1.597 0.029-1.168 0.051-1.416 0.151-1.76 0.483-1.68 1.831-2.957 3.518-3.329l0.031-0.006c0.432-0.095 1.379-0.096 1.823-0.001z"></path>
</symbol>
</defs>
</svg>