<svg xmlns="http://www.w3.org/2000/svg" aria-hidden="true" style="position:absolute;width:0;height:0;overflow:hidden"><defs><symbol id="icon-burger" viewBox="0 0 32 32"><path stroke-linecap="round" stroke-linejoin="round" stroke-width="2.5" d="M4 16h24M4 8h24M4 24h24"/></symbol><symbol id="icon-chocolate" viewBox="0 0 32 32"><path d="M3.944 20.076 14.721 2.652l.64-.674 8.236 5.491.056 3.314 2.01 3.28-8.88 14.077-12.839-8.063z"/><path stroke-linecap="round" stroke-linejoin="round" stroke-width="2.667" d="M21.635 23.88 7.45 15.016m3.911-6.417 14.185 8.864M10.63 25.864l11.736-19.25m4.81 8.175c-3.04-1.899-4.234-3.384-2.278-6.592l-9.626-6.015-11.736 19.25 14.186 8.864 9.454-15.507z"/></symbol><symbol id="icon-chocolate-bar" viewBox="0 0 32 32"><path d="m13.822 2.413 7.527 7.536.08-.08a.856.856 0 0 1 1.184-.013l.873.873c.305.305.315.77.083 1.094l-.004.007-.143.192 6.16 6.16c.55.55.55 1.43 0 1.98l-9.43 9.43c-.55.55-1.43.55-1.98 0l-4.447-4.447a.853.853 0 0 1-.612.317.842.842 0 0 1-.644-.246l-2.6-2.6a.856.856 0 0 1-.013-1.184l.006-.007.077-.076-7.527-7.527c-.55-.55-.55-1.43 0-1.98l9.43-9.43c.55-.55 1.43-.55 1.98 0v.001zm6.582 8.48-1.756-1.755a.59.59 0 0 0-.85 0l-3.58 3.58a.621.621 0 0 0-.179.43.602.602 0 0 0 .179.43l1.749 1.749.61-.61-1.565-1.565 3.21-3.22 1.569 1.574.613-.613zm-5.076 5.072-1.754-1.754a.59.59 0 0 0-.85 0l-3.59 3.59c-.24.23-.24.61 0 .85l1.752 1.752.616-.616-1.57-1.564 3.22-3.21 1.564 1.563.612-.611zM8.822 8.193l3.58 3.58c.24.24.62.24.85-.01l3.58-3.58a.57.57 0 0 0 .18-.42h.01c0-.15-.06-.31-.18-.43l-3.58-3.58a.602.602 0 0 0-.86 0l-3.58 3.59c-.24.23-.24.61 0 .85zm-5.07 5.07 3.58 3.58c.24.24.62.24.85 0l3.58-3.58a.578.578 0 0 0 .18-.43h.01c0-.16-.06-.31-.18-.43l-3.58-3.58a.59.59 0 0 0-.85 0l-3.59 3.59c-.24.23-.24.61 0 .85zm6.933 8.754 2.362 2.363 9.636-13.04-.655-.655-11.343 11.332z"/><path d="m13.822 2.413 7.527 7.536.08-.08a.856.856 0 0 1 1.184-.013l.873.873c.305.305.315.77.083 1.094l-.004.007-.143.192 6.16 6.16c.55.55.55 1.43 0 1.98l-9.43 9.43c-.55.55-1.43.55-1.98 0l-4.447-4.447a.853.853 0 0 1-.612.317.842.842 0 0 1-.644-.246l-2.6-2.6a.856.856 0 0 1-.013-1.184l.006-.007.077-.076-7.527-7.527c-.55-.55-.55-1.43 0-1.98l9.43-9.43c.55-.55 1.43-.55 1.98 0v.001zm6.582 8.48-1.756-1.755a.59.59 0 0 0-.85 0l-3.58 3.58a.621.621 0 0 0-.179.43.602.602 0 0 0 .179.43l1.749 1.749.61-.61-1.565-1.565 3.21-3.22 1.569 1.574.613-.613zm-5.076 5.072-1.754-1.754a.59.59 0 0 0-.85 0l-3.59 3.59c-.24.23-.24.61 0 .85l1.752 1.752.616-.616-1.57-1.564 3.22-3.21 1.564 1.563.612-.611zM8.822 8.193l3.58 3.58c.24.24.62.24.85-.01l3.58-3.58a.57.57 0 0 0 .18-.42h.01c0-.15-.06-.31-.18-.43l-3.58-3.58a.602.602 0 0 0-.86 0l-3.58 3.59c-.24.23-.24.61 0 .85zm-5.07 5.07 3.58 3.58c.24.24.62.24.85 0l3.58-3.58a.578.578 0 0 0 .18-.43h.01c0-.16-.06-.31-.18-.43l-3.58-3.58a.59.59 0 0 0-.85 0l-3.59 3.59c-.24.23-.24.61 0 .85zm6.933 8.754 2.362 2.363 9.636-13.04-.655-.655-11.343 11.332z"/></symbol><symbol id="icon-close" viewBox="0 0 32 32"><path stroke-linecap="round" stroke-linejoin="round" stroke-width="2.909" d="M24 8 8 24M8 8l16 16"/></symbol><symbol id="icon-coin" viewBox="0 0 32 32"><path d="M16 2.667c-7.333 0-13.333 6-13.333 13.333s6 13.333 13.333 13.333 13.333-6 13.333-13.333S23.333 2.667 16 2.667zm0 24c-5.867 0-10.667-4.8-10.667-10.667S10.133 5.333 16 5.333 26.667 10.133 26.667 16 21.867 26.667 16 26.667z"/><path d="M17.733 14.667h-3.467c-.667 0-1.2-.533-1.2-1.2s.533-1.2 1.2-1.2h4.933c.8 0 1.333-.533 1.333-1.333s-.533-1.333-1.333-1.333h-1.867v-1.2c0-.8-.533-1.333-1.333-1.333s-1.333.533-1.333 1.333v1.2h-.4c-2.133 0-3.867 1.733-3.867 3.867s1.733 3.867 3.867 3.867h3.333c.667 0 1.2.533 1.2 1.2s-.533 1.2-1.2 1.2h-4.933c-.8 0-1.333.533-1.333 1.333s.533 1.333 1.333 1.333h2v1.2c0 .8.533 1.333 1.333 1.333s1.333-.533 1.333-1.333v-1.2h.4c2.133 0 3.867-1.733 3.867-3.867s-1.733-3.867-3.867-3.867z"/></symbol><symbol id="icon-instagram" viewBox="0 0 32 32"><path stroke-linecap="round" stroke-linejoin="round" stroke-width="2.667" d="M22.667 2.667H9.334a6.667 6.667 0 0 0-6.667 6.667v13.333a6.667 6.667 0 0 0 6.667 6.667h13.333a6.667 6.667 0 0 0 6.667-6.667V9.334a6.667 6.667 0 0 0-6.667-6.667z"/><path stroke-linecap="round" stroke-linejoin="round" stroke-width="2.667" d="M21.334 15.16a5.329 5.329 0 0 1-2.878 5.546 5.338 5.338 0 0 1-6.169-.992 5.33 5.33 0 0 1 1.316-8.505 5.336 5.336 0 0 1 6.228.962 5.328 5.328 0 0 1 1.504 2.989zM23.333 8.667h.013"/></symbol>
<svg xmlns="http://www.w3.org/2000/svg" aria-hidden="true" style="position:absolute;width:0;height:0;overflow:hidden"><defs><symbol id="icon-play" viewBox="0 0 32 32"><path fill="#f5f4f4" d="M11.886 23.771V10.057l12.8 6.857-12.8 6.857z" style="fill:var(--color1, #f5f4f4)"/><path fill="none" stroke="#fff" stroke-width=".914" d="M31.543 16c0 8.584-6.959 15.543-15.543 15.543S.457 24.584.457 16 7.416.457 16 .457 31.543 7.416 31.543 16z" style="stroke:var(--color2, #fff)"/></symbol></defs></svg>
<symbol id="icon-spoon" viewBox="0 0 32 32"><path d="M15.451 14.106a5.154 5.154 0 0 1-1.177-3.282c0-4.324 5.181-8.642 10.362-8.642a5.183 5.183 0 0 1 5.181 5.182c0 5.182-4.317 10.364-8.646 10.364a5.15 5.15 0 0 1-3.281-1.177L5.132 29.312a1.73 1.73 0 0 1-2.445-2.445l12.764-12.761z"/></symbol><symbol id="icon-twitter" viewBox="0 0 32 32"><path stroke-linecap="round" stroke-linejoin="round" stroke-width="2.667" d="M30.667 4a14.542 14.542 0 0 1-4.187 2.04 5.975 5.975 0 0 0-6.637-1.661A5.981 5.981 0 0 0 16 10.04v1.333c-2.343.061-4.665-.459-6.759-1.513S4.68 6.297 3.333 4.379c0 0-4.667 12.954 7.333 18.287a15.519 15.519 0 0 1-9.333 2.667C13.333 32 28 25.333 28 10a5.966 5.966 0 0 0-.107-1.107A10.288 10.288 0 0 0 30.666 4z"/></symbol><symbol id="icon-vector" viewBox="0 0 32 32"><path d="M16.947 17.867a1.334 1.334 0 0 1-1.894 0l-6.107-6.12a1.334 1.334 0 1 0-1.894 1.88l6.12 6.12a4.001 4.001 0 0 0 5.654 0l6.12-6.12a1.337 1.337 0 0 0-.434-2.172 1.331 1.331 0 0 0-1.46.292l-6.107 6.12z"/></symbol><symbol id="icon-vector-2" viewBox="0 0 32 32"><path d="M.762 32V0l30.476 16L.762 32z"/></symbol><symbol id="icon-flag" viewBox="0 0 43 32"><path fill="gold" d="M42.442.078H.323v31.344h42.119V.078z" style="fill:var(--color1, #ffd700)"/><path fill="#0057b7" d="M.324.078h42.119V15.75H.324V.078z" style="fill:var(--color2, #0057b7)"/></symbol><symbol id="icon-mastercard-1" viewBox="0 0 51 32"><path fill="#ed0006" d="M25.6 26.935a14.53 14.53 0 0 1-9.496 3.518c-8.086 0-14.641-6.593-14.641-14.726S8.018 1.001 16.104 1.001c3.624 0 6.94 1.324 9.496 3.518a14.532 14.532 0 0 1 9.497-3.518c8.086 0 14.64 6.593 14.64 14.726s-6.555 14.726-14.64 14.726c-3.624 0-6.94-1.324-9.497-3.518z" style="fill:var(--color3, #ed0006)"/><path fill="#f9a000" d="M25.6 26.935c3.148-2.701 5.144-6.72 5.144-11.209S28.748 7.219 25.6 4.518A14.53 14.53 0 0 1 35.097 1c8.086 0 14.64 6.593 14.64 14.726s-6.555 14.726-14.64 14.726c-3.624 0-6.94-1.324-9.497-3.518z" style="fill:var(--color4, #f9a000)"/><path fill="#ff5e00" d="M25.6 26.935c3.148-2.701 5.144-6.72 5.144-11.208S28.748 7.22 25.6 4.519c-3.148 2.701-5.144 6.72-5.144 11.208s1.996 8.507 5.144 11.208z" style="fill:var(--color5, #ff5e00)"/></symbol><symbol id="icon-mastercard-2" viewBox="0 0 47 32"><path fill="#fafafa" d="M4.267.533h38.4A3.733 3.733 0 0 1 46.4 4.266v23.467a3.733 3.733 0 0 1-3.733 3.733h-38.4a3.733 3.733 0 0 1-3.733-3.733V4.266A3.733 3.733 0 0 1 4.267.533z" style="fill:var(--color6, #fafafa)"/><path fill="#ed0006" d="M23.467 23.29a9.69 9.69 0 0 1-6.331 2.345c-5.39 0-9.76-4.396-9.76-9.818s4.37-9.818 9.76-9.818a9.69 9.69 0 0 1 6.331 2.345 9.69 9.69 0 0 1 6.331-2.345c5.391 0 9.76 4.395 9.76 9.818s-4.37 9.818-9.76 9.818a9.69 9.69 0 0 1-6.331-2.345z" style="fill:var(--color3, #ed0006)"/><path fill="#f9a000" d="M23.467 23.29c2.099-1.801 3.429-4.48 3.429-7.472s-1.331-5.672-3.429-7.472a9.69 9.69 0 0 1 6.331-2.345c5.391 0 9.76 4.395 9.76 9.818s-4.37 9.818-9.76 9.818a9.69 9.69 0 0 1-6.331-2.345z" style="fill:var(--color4, #f9a000)"/><path fill="#ff5e00" d="M23.467 23.29c2.099-1.801 3.429-4.48 3.429-7.472s-1.331-5.672-3.429-7.472c-2.099 1.801-3.429 4.48-3.429 7.472s1.331 5.672 3.429 7.472z" style="fill:var(--color5, #ff5e00)"/><path fill="none" stroke="#fafafa" stroke-width="1.067" d="M4.267.533h38.4A3.733 3.733 0 0 1 46.4 4.266v23.467a3.733 3.733 0 0 1-3.733 3.733h-38.4a3.733 3.733 0 0 1-3.733-3.733V4.266A3.733 3.733 0 0 1 4.267.533z" style="stroke:var(--color6, #fafafa)"/></symbol></defs></svg>
